<svg width="807" height="91" viewBox="0 0 807 91" fill="none" xmlns="http://www.w3.org/2000/svg">
<rect x="0.5" y="0.5" width="96.1748" height="36" rx="18" fill="black"/>
<rect x="0.5" y="0.5" width="96.1748" height="36" rx="18" stroke="url(#paint0_linear_2867_20913)"/>
<path d="M18.5461 13.9395H23.3177C24.7183 13.9509 25.7331 14.3442 26.3624 15.1186C26.9916 15.893 27.1992 16.9508 26.9855 18.2919C26.9025 18.9047 26.7184 19.5057 26.4336 20.0953C26.1605 20.6849 25.7808 21.2166 25.2941 21.6906C24.7005 22.2917 24.0655 22.6732 23.389 22.8351C22.7124 22.9971 22.012 23.0779 21.288 23.0779H19.1514L18.4749 26.3726H16L18.5461 13.9395ZM20.6292 15.9163L19.5609 21.1184C19.6322 21.1299 19.7034 21.1357 19.7746 21.1357C19.8576 21.1357 19.9409 21.1357 20.0239 21.1357C21.1634 21.1472 22.1131 21.0376 22.8726 20.8063C23.6322 20.5635 24.1428 19.7197 24.4038 18.2746C24.6175 17.0607 24.4038 16.3612 23.7629 16.1764C23.1337 15.9915 22.3445 15.9048 21.3948 15.9163C21.2524 15.9277 21.116 15.9336 20.9853 15.9336C20.8667 15.9336 20.7421 15.9336 20.6114 15.9336L20.6292 15.9163Z" fill="#B585FB"/>
<path d="M29.8047 10.6274H32.2618L31.5674 13.9395H33.7752C34.9859 13.9627 35.8879 14.2055 36.4815 14.6678C37.0869 15.1301 37.2649 16.0089 37.0156 17.3035L35.8227 23.0779H33.3301L34.4696 17.5636C34.5881 16.9855 34.5525 16.5752 34.3627 16.3324C34.1729 16.0897 33.7634 15.9683 33.1342 15.9683L31.1579 15.951L29.6979 23.0779H27.2408L29.8047 10.6274Z" fill="#B585FB"/>
<path d="M39.6541 13.9395H44.4258C45.8263 13.9509 46.8412 14.3442 47.4704 15.1186C48.0996 15.893 48.3072 16.9508 48.0935 18.2919C48.0106 18.9047 47.8265 19.5057 47.5416 20.0953C47.2685 20.6849 46.8889 21.2166 46.4021 21.6906C45.8085 22.2917 45.1736 22.6732 44.497 22.8351C43.8204 22.9971 43.12 23.0779 42.396 23.0779H40.2595L39.5829 26.3726H37.108L39.6541 13.9395ZM41.7372 15.9163L40.669 21.1184C40.7402 21.1299 40.8114 21.1357 40.8826 21.1357C40.9656 21.1357 41.0489 21.1357 41.1319 21.1357C42.2714 21.1472 43.2211 21.0376 43.9806 20.8063C44.7402 20.5635 45.2508 19.7197 45.5119 18.2746C45.7255 17.0607 45.5119 16.3612 44.8709 16.1764C44.2417 15.9915 43.4525 15.9048 42.5028 15.9163C42.3604 15.9277 42.224 15.9336 42.0933 15.9336C41.9748 15.9336 41.8501 15.9336 41.7194 15.9336L41.7372 15.9163Z" fill="#B585FB"/>
<path d="M56.9333 23V14.2727H60.3765C61.0384 14.2727 61.6024 14.3991 62.0683 14.652C62.5342 14.902 62.8893 15.25 63.1336 15.696C63.3808 16.1392 63.5044 16.6506 63.5044 17.2301C63.5044 17.8097 63.3794 18.321 63.1294 18.7642C62.8794 19.2074 62.5171 19.5526 62.0427 19.7997C61.5711 20.0469 61.0001 20.1705 60.3296 20.1705H58.135V18.6918H60.0313C60.3865 18.6918 60.6791 18.6307 60.9092 18.5085C61.1421 18.3835 61.3154 18.2116 61.4291 17.9929C61.5455 17.7713 61.6038 17.517 61.6038 17.2301C61.6038 16.9403 61.5455 16.6875 61.4291 16.4716C61.3154 16.2528 61.1421 16.0838 60.9092 15.9645C60.6762 15.8423 60.3808 15.7812 60.0228 15.7812H58.7785V23H56.9333ZM64.7029 23V14.2727H66.548V17.8736H70.2938V14.2727H72.1347V23H70.2938V19.3949H66.548V23H64.7029ZM73.656 23V14.2727H77.0992C77.7611 14.2727 78.325 14.3991 78.7909 14.652C79.2568 14.902 79.6119 15.25 79.8563 15.696C80.1034 16.1392 80.227 16.6506 80.227 17.2301C80.227 17.8097 80.102 18.321 79.852 18.7642C79.602 19.2074 79.2398 19.5526 78.7654 19.7997C78.2938 20.0469 77.7227 20.1705 77.0523 20.1705H74.8577V18.6918H76.754C77.1091 18.6918 77.4017 18.6307 77.6318 18.5085C77.8648 18.3835 78.0381 18.2116 78.1517 17.9929C78.2682 17.7713 78.3264 17.517 78.3264 17.2301C78.3264 16.9403 78.2682 16.6875 78.1517 16.4716C78.0381 16.2528 77.8648 16.0838 77.6318 15.9645C77.3989 15.8423 77.1034 15.7812 76.7455 15.7812H75.5012V23H73.656Z" fill="#E1E1E6"/>
<rect x="113.675" y="0.5" width="100.825" height="36" rx="18" fill="black"/>
<rect x="113.675" y="0.5" width="100.825" height="36" rx="18" stroke="url(#paint1_linear_2867_20913)"/>
<path fill-rule="evenodd" clip-rule="evenodd" d="M132.407 15.3447C132.323 15.3447 132.303 15.3028 132.344 15.2405L132.782 14.6773C132.824 14.6147 132.928 14.5731 133.011 14.5731H140.455C140.539 14.5731 140.56 14.6357 140.518 14.6983L140.164 15.2405C140.122 15.3028 140.018 15.3654 139.955 15.3654L132.407 15.3447ZM129.258 17.2628C129.175 17.2628 129.154 17.2215 129.196 17.1585L129.634 16.5957C129.675 16.5331 129.779 16.4914 129.863 16.4914H139.371C139.454 16.4914 139.496 16.5541 139.475 16.6167L139.308 17.1169C139.288 17.2005 139.204 17.2421 139.121 17.2421L129.258 17.2628ZM134.304 19.1812C134.221 19.1812 134.2 19.1186 134.242 19.0559L134.533 18.5347C134.575 18.4721 134.659 18.4098 134.742 18.4098H138.912C138.996 18.4098 139.037 18.4721 139.037 18.5557L138.996 19.0559C138.996 19.1395 138.912 19.2022 138.85 19.2022L134.304 19.1812ZM155.948 14.9694C154.634 15.3031 153.737 15.5532 152.445 15.8866C152.132 15.9702 152.111 15.9909 151.84 15.6781C151.527 15.3238 151.298 15.0943 150.86 14.8858C149.546 14.2397 148.274 14.4272 147.086 15.1989C145.668 16.1161 144.938 17.4713 144.959 19.1602C144.98 20.8284 146.127 22.2046 147.774 22.4341C149.192 22.6216 150.38 22.121 151.319 21.0579C151.506 20.8284 151.673 20.5783 151.881 20.2862H147.857C147.42 20.2862 147.315 20.0151 147.461 19.6608C147.732 19.0143 148.233 17.9302 148.524 17.388C148.587 17.2628 148.733 17.0543 149.046 17.0543H156.635C156.594 17.6175 156.594 18.1803 156.511 18.7435C156.281 20.2446 155.718 21.6208 154.801 22.8301C153.299 24.8111 151.34 26.041 148.858 26.3748C146.815 26.6459 144.917 26.2495 143.249 24.9986C141.706 23.8309 140.831 22.2879 140.601 20.3698C140.33 18.0971 140.997 16.0535 142.373 14.2603C143.854 12.3213 145.814 11.091 148.212 10.653C150.172 10.2987 152.048 10.5281 153.737 11.6748C154.842 12.4046 155.635 13.4054 156.156 14.6147C156.281 14.8025 156.198 14.9071 155.948 14.9694Z" fill="#22D3EE"/>
<path d="M162.849 26.5C160.952 26.458 159.221 25.9162 157.761 24.6649C156.531 23.6018 155.76 22.2463 155.51 20.6406C155.134 18.2846 155.78 16.1993 157.199 14.3439C158.721 12.3419 160.555 11.2995 163.037 10.8615C165.164 10.4865 167.166 10.695 168.979 11.925C170.627 13.051 171.648 14.5731 171.919 16.5747C172.274 19.3897 171.461 21.6834 169.521 23.6434C168.145 25.0402 166.456 25.9162 164.517 26.3122C163.954 26.4164 163.391 26.4374 162.849 26.5ZM167.812 18.0761C167.791 17.805 167.791 17.5965 167.749 17.388C167.374 15.3238 165.476 14.1561 163.496 14.615C161.556 15.0527 160.305 16.283 159.847 18.243C159.471 19.8693 160.264 21.5165 161.765 22.1836C162.912 22.6842 164.058 22.6216 165.164 22.0587C166.811 21.2038 167.707 19.8693 167.812 18.0761Z" fill="#22D3EE"/>
<path d="M186.545 17.0938C186.486 16.8864 186.402 16.7031 186.294 16.544C186.186 16.3821 186.054 16.2457 185.898 16.1349C185.744 16.0213 185.568 15.9347 185.369 15.875C185.173 15.8153 184.956 15.7855 184.717 15.7855C184.271 15.7855 183.879 15.8963 183.541 16.1179C183.206 16.3395 182.945 16.6619 182.757 17.0852C182.57 17.5057 182.476 18.0199 182.476 18.6278C182.476 19.2358 182.568 19.7528 182.753 20.179C182.938 20.6051 183.199 20.9304 183.537 21.1548C183.875 21.3764 184.274 21.4872 184.734 21.4872C185.152 21.4872 185.509 21.4134 185.804 21.2656C186.102 21.1151 186.33 20.9034 186.486 20.6307C186.645 20.358 186.724 20.0355 186.724 19.6634L187.099 19.7188H184.849V18.3295H188.501V19.429C188.501 20.196 188.339 20.8551 188.016 21.4062C187.692 21.9545 187.246 22.3778 186.678 22.6761C186.109 22.9716 185.459 23.1193 184.726 23.1193C183.908 23.1193 183.189 22.9389 182.57 22.5781C181.95 22.2145 181.467 21.6989 181.121 21.0312C180.777 20.3608 180.605 19.5653 180.605 18.6449C180.605 17.9375 180.707 17.3068 180.912 16.7528C181.119 16.196 181.409 15.7244 181.781 15.3381C182.153 14.9517 182.587 14.6577 183.081 14.456C183.575 14.2543 184.111 14.1534 184.688 14.1534C185.182 14.1534 185.642 14.2259 186.068 14.3707C186.494 14.5128 186.872 14.7145 187.202 14.9759C187.534 15.2372 187.805 15.5483 188.016 15.9091C188.226 16.267 188.361 16.6619 188.42 17.0938H186.545ZM197.907 18.6364C197.907 19.5881 197.727 20.3977 197.366 21.0653C197.008 21.733 196.52 22.2429 195.9 22.5952C195.284 22.9446 194.591 23.1193 193.821 23.1193C193.045 23.1193 192.349 22.9432 191.733 22.5909C191.116 22.2386 190.629 21.7287 190.271 21.0611C189.913 20.3935 189.734 19.5852 189.734 18.6364C189.734 17.6847 189.913 16.875 190.271 16.2074C190.629 15.5398 191.116 15.0312 191.733 14.6818C192.349 14.3295 193.045 14.1534 193.821 14.1534C194.591 14.1534 195.284 14.3295 195.9 14.6818C196.52 15.0312 197.008 15.5398 197.366 16.2074C197.727 16.875 197.907 17.6847 197.907 18.6364ZM196.037 18.6364C196.037 18.0199 195.944 17.5 195.76 17.0767C195.578 16.6534 195.321 16.3324 194.988 16.1136C194.656 15.8949 194.267 15.7855 193.821 15.7855C193.375 15.7855 192.985 15.8949 192.653 16.1136C192.321 16.3324 192.062 16.6534 191.877 17.0767C191.696 17.5 191.605 18.0199 191.605 18.6364C191.605 19.2528 191.696 19.7727 191.877 20.196C192.062 20.6193 192.321 20.9403 192.653 21.1591C192.985 21.3778 193.375 21.4872 193.821 21.4872C194.267 21.4872 194.656 21.3778 194.988 21.1591C195.321 20.9403 195.578 20.6193 195.76 20.196C195.944 19.7727 196.037 19.2528 196.037 18.6364Z" fill="#E1E1E6"/>
<rect x="231.5" y="0.5" width="136.6" height="36" rx="18" fill="black"/>
<rect x="231.5" y="0.5" width="136.6" height="36" rx="18" stroke="url(#paint2_linear_2867_20913)"/>
<g opacity="0.9">
<rect x="256.6" y="16.5001" width="12" height="12" rx="6" fill="#42A5F5"/>
<path d="M260.458 19.5723L260.227 20.7876H265.059L264.903 21.5736H260.074L259.84 22.7853H264.672L264.402 24.1717L262.453 24.8303L260.764 24.1717L260.882 23.5749H259.694L259.413 25.0304L262.204 26.1221L265.422 25.0304L265.849 22.8362L265.934 22.396L266.482 19.5723H260.458Z" fill="white"/>
</g>
<g opacity="0.9">
<rect x="247" y="16.5001" width="12" height="12" rx="6" fill="#E44D26"/>
<g clip-path="url(#clip0_2867_20913)">
<rect width="6.85743" height="7.83707" transform="translate(249.919 18.9289)" fill="white"/>
<path d="M253.348 26.4516L255.645 25.8187L255.955 22.4018H251.87L251.768 21.2647H256.056L256.169 20.15H250.527L250.843 23.5165H254.731L254.601 24.9617L253.348 25.2977L252.096 24.9617L252.017 24.0318H250.888L251.052 25.8187L253.348 26.4516ZM248.874 18.296H257.822L257.016 27.3703L253.348 28.3785L249.681 27.3703L248.874 18.296Z" fill="white"/>
<path d="M253.348 26.4516L255.645 25.8187L255.955 22.4018H251.87L251.768 21.2647H256.056L256.169 20.15H250.527L250.843 23.5165H254.731L254.601 24.9617L253.348 25.2977L252.096 24.9617L252.017 24.0318H250.888L251.052 25.8187L253.348 26.4516ZM248.874 18.296H257.822L257.016 27.3703L253.348 28.3785L249.681 27.3703L248.874 18.296Z" fill="#E44D26"/>
</g>
</g>
<g opacity="0.9">
<rect x="251.8" y="8.5" width="12" height="12" rx="6" fill="#E5D130"/>
<path d="M254.222 16.5824L255.133 16.0399C255.309 16.3466 255.469 16.606 255.852 16.606C256.22 16.606 256.452 16.4652 256.452 15.914V12.1707H257.571V15.9295C257.571 17.0696 256.892 17.5887 255.9 17.5887C255.55 17.6074 255.202 17.5212 254.903 17.3415C254.603 17.1618 254.366 16.8971 254.222 16.5821L254.222 16.5824ZM258.179 16.4641L259.09 15.945C259.192 16.1472 259.349 16.3172 259.544 16.4354C259.739 16.5537 259.964 16.6153 260.193 16.6134C260.657 16.6134 260.953 16.3852 260.953 16.0706C260.953 15.6932 260.649 15.5594 260.137 15.3383L259.858 15.2217C259.051 14.8837 258.515 14.4589 258.515 13.5624C258.515 12.7366 259.155 12.1076 260.154 12.1076C260.478 12.0846 260.801 12.1558 261.084 12.3124C261.367 12.469 261.597 12.7041 261.745 12.9884L260.873 13.539C260.816 13.3979 260.717 13.2773 260.588 13.193C260.46 13.1088 260.308 13.0649 260.154 13.0673C260.087 13.0606 260.019 13.0677 259.954 13.0883C259.89 13.1089 259.831 13.1425 259.78 13.1869C259.73 13.2313 259.689 13.2855 259.661 13.3462C259.634 13.4068 259.619 13.4725 259.618 13.539C259.618 13.8694 259.826 14.0029 260.305 14.2074L260.585 14.3254C261.536 14.7265 262.072 15.1355 262.072 16.0554C262.072 17.0463 261.28 17.589 260.217 17.589C259.178 17.589 258.507 17.1015 258.179 16.4644" fill="#06070B"/>
</g>
<path d="M277.358 23V14.2727H283.137V15.794H279.203V17.8736H282.753V19.3949H279.203V23H277.358ZM289.768 14.2727H291.613V19.9403C291.613 20.5767 291.461 21.1335 291.157 21.6108C290.856 22.0881 290.434 22.4602 289.892 22.7273C289.349 22.9915 288.717 23.1236 287.996 23.1236C287.271 23.1236 286.638 22.9915 286.095 22.7273C285.552 22.4602 285.131 22.0881 284.829 21.6108C284.528 21.1335 284.378 20.5767 284.378 19.9403V14.2727H286.223V19.7827C286.223 20.1151 286.295 20.4105 286.44 20.669C286.588 20.9276 286.795 21.1307 287.062 21.2784C287.329 21.4261 287.64 21.5 287.996 21.5C288.354 21.5 288.665 21.4261 288.929 21.2784C289.196 21.1307 289.402 20.9276 289.547 20.669C289.694 20.4105 289.768 20.1151 289.768 19.7827V14.2727ZM293.132 23V14.2727H294.977V21.4787H298.718V23H293.132ZM299.94 23V14.2727H301.785V21.4787H305.527V23H299.94ZM310.383 17.9162V19.3565H306.403V17.9162H310.383ZM316.698 16.7827C316.664 16.4389 316.518 16.1719 316.259 15.9815C316.001 15.7912 315.65 15.696 315.206 15.696C314.905 15.696 314.651 15.7386 314.444 15.8239C314.236 15.9062 314.077 16.0213 313.966 16.169C313.858 16.3168 313.805 16.4844 313.805 16.6719C313.799 16.8281 313.831 16.9645 313.903 17.081C313.976 17.1974 314.077 17.2983 314.205 17.3835C314.333 17.4659 314.481 17.5384 314.648 17.6009C314.816 17.6605 314.995 17.7116 315.185 17.7543L315.969 17.9418C316.35 18.027 316.699 18.1406 317.018 18.2827C317.336 18.4247 317.611 18.5994 317.844 18.8068C318.077 19.0142 318.258 19.2585 318.385 19.5398C318.516 19.821 318.583 20.1435 318.586 20.5071C318.583 21.0412 318.447 21.5043 318.177 21.8963C317.91 22.2855 317.523 22.5881 317.018 22.804C316.515 23.017 315.908 23.1236 315.198 23.1236C314.493 23.1236 313.88 23.0156 313.357 22.7997C312.837 22.5838 312.431 22.2642 312.138 21.8409C311.849 21.4148 311.697 20.8878 311.682 20.2599H313.468C313.488 20.5526 313.572 20.7969 313.719 20.9929C313.87 21.1861 314.07 21.3324 314.32 21.4318C314.573 21.5284 314.858 21.5767 315.177 21.5767C315.489 21.5767 315.76 21.5312 315.991 21.4403C316.224 21.3494 316.404 21.223 316.532 21.0611C316.66 20.8991 316.724 20.7131 316.724 20.5028C316.724 20.3068 316.665 20.142 316.549 20.0085C316.435 19.875 316.268 19.7614 316.046 19.6676C315.827 19.5739 315.559 19.4886 315.241 19.4119L314.29 19.1733C313.555 18.9943 312.974 18.7145 312.547 18.3338C312.121 17.9531 311.91 17.4403 311.912 16.7955C311.91 16.267 312.05 15.8054 312.334 15.4105C312.621 15.0156 313.015 14.7074 313.515 14.4858C314.015 14.2642 314.583 14.1534 315.219 14.1534C315.867 14.1534 316.432 14.2642 316.915 14.4858C317.401 14.7074 317.779 15.0156 318.049 15.4105C318.319 15.8054 318.458 16.2628 318.466 16.7827H316.698ZM319.494 15.794V14.2727H326.662V15.794H323.99V23H322.166V15.794H319.494ZM328.28 23H326.303L329.316 14.2727H331.694L334.702 23H332.725L330.539 16.267H330.471L328.28 23ZM328.157 19.5696H332.827V21.0099H328.157V19.5696ZM343.043 17.3281H341.176C341.142 17.0866 341.073 16.8722 340.968 16.6847C340.862 16.4943 340.727 16.3324 340.563 16.1989C340.398 16.0653 340.208 15.9631 339.992 15.892C339.779 15.821 339.547 15.7855 339.297 15.7855C338.845 15.7855 338.452 15.8977 338.117 16.1222C337.781 16.3437 337.521 16.6676 337.337 17.0938C337.152 17.517 337.06 18.0312 337.06 18.6364C337.06 19.2585 337.152 19.7812 337.337 20.2045C337.524 20.6278 337.786 20.9474 338.121 21.1634C338.456 21.3793 338.844 21.4872 339.284 21.4872C339.531 21.4872 339.76 21.4545 339.97 21.3892C340.183 21.3239 340.372 21.2287 340.537 21.1037C340.702 20.9759 340.838 20.821 340.946 20.6392C341.057 20.4574 341.134 20.25 341.176 20.017L343.043 20.0256C342.994 20.4261 342.874 20.8125 342.681 21.1847C342.49 21.554 342.233 21.8849 341.909 22.1776C341.588 22.4673 341.205 22.6974 340.759 22.8679C340.316 23.0355 339.814 23.1193 339.254 23.1193C338.476 23.1193 337.78 22.9432 337.166 22.5909C336.556 22.2386 336.073 21.7287 335.718 21.0611C335.365 20.3935 335.189 19.5852 335.189 18.6364C335.189 17.6847 335.368 16.875 335.726 16.2074C336.084 15.5398 336.57 15.0312 337.183 14.6818C337.797 14.3295 338.487 14.1534 339.254 14.1534C339.76 14.1534 340.229 14.2244 340.661 14.3665C341.095 14.5085 341.48 14.7159 341.816 14.9886C342.151 15.2585 342.423 15.5895 342.634 15.9815C342.847 16.3736 342.983 16.8224 343.043 17.3281ZM344.366 23V14.2727H346.211V18.1207H346.326L349.467 14.2727H351.678L348.44 18.1804L351.717 23H349.509L347.119 19.4119L346.211 20.5199V23H344.366Z" fill="#E1E1E6"/>
<rect x="385.1" y="0.5" width="102.765" height="36" rx="18" fill="black"/>
<rect x="385.1" y="0.5" width="102.765" height="36" rx="18" stroke="url(#paint3_linear_2867_20913)"/>
<path d="M412.637 26.6058C412.434 26.4269 412.223 26.2474 412.022 26.0485C411.86 26.1975 411.709 26.3371 411.549 26.4761C409.554 28.1966 407.496 28.9129 406.277 28.2166C405.097 27.5502 404.726 25.5816 405.198 23.1049C405.248 22.8365 405.309 22.568 405.379 22.2995C405.167 22.2372 404.966 22.1798 404.764 22.1125C402.253 21.2554 400.6 19.8634 400.6 18.4708C400.6 17.1286 402.142 15.8258 404.552 14.9905C404.821 14.9007 405.106 14.8115 405.399 14.7317C405.331 14.473 405.278 14.2243 405.227 13.9837C404.723 11.4696 405.076 9.46111 406.265 8.78475C407.505 8.0685 409.562 8.83462 411.628 10.6343C411.749 10.7434 411.871 10.8631 412.001 10.9821C412.193 10.8032 412.374 10.6243 412.566 10.4654C414.522 8.78226 416.467 8.07847 417.657 8.75483C418.897 9.45052 419.26 11.5987 418.706 14.2542C418.676 14.4238 418.639 14.5828 418.595 14.7529C418.848 14.8228 419.099 14.9019 419.331 14.9817C421.791 15.817 423.384 17.1199 423.364 18.4919C423.364 19.8939 421.66 21.2766 419.047 22.1318C418.906 22.1717 418.765 22.2216 418.624 22.2609C418.684 22.4597 418.724 22.6586 418.765 22.8574C419.289 25.4332 418.885 27.5415 417.666 28.2378C417.346 28.416 416.977 28.5068 416.604 28.4996C415.486 28.4977 414.067 27.8176 412.637 26.6058ZM414.613 22.9559C414.034 23.7885 413.397 24.5858 412.708 25.3428C412.899 25.5299 413.091 25.7013 413.282 25.8602C414.946 27.2722 416.478 27.7996 417.194 27.3919C417.413 27.2177 417.592 27.0048 417.72 26.7657C417.848 26.5266 417.923 26.2662 417.94 25.9999C418.086 25.013 418.045 24.0102 417.819 23.0364C417.789 22.8574 417.752 22.6785 417.698 22.4897C416.682 22.7094 415.652 22.8652 414.613 22.9559ZM406.164 23.2745C405.751 25.394 406.054 26.9736 406.771 27.3819C407.026 27.4801 407.3 27.5254 407.575 27.5147C407.851 27.5039 408.12 27.4373 408.364 27.3196C409.315 26.9503 410.181 26.4169 410.915 25.748C411.067 25.6283 411.208 25.4893 411.359 25.3503C410.654 24.593 410.001 23.7959 409.403 22.9634C408.369 22.8835 407.341 22.7377 406.328 22.5271C406.265 22.787 406.215 23.0351 406.164 23.2745ZM412.032 24.6665C412.476 24.179 412.919 23.6423 413.363 23.0457C412.919 23.0656 412.456 23.0756 411.992 23.0756C411.528 23.0756 411.095 23.0656 410.661 23.0457C411.114 23.6317 411.568 24.179 412.032 24.6665H412.032ZM409.914 14.9605C409.531 15.5072 409.158 16.0826 408.806 16.691C408.453 17.2876 408.131 17.8941 407.838 18.4988C408.141 19.0954 408.463 19.7019 408.816 20.3191C409.168 20.9156 409.541 21.5035 409.925 22.0589C410.59 22.0988 411.286 22.1212 411.991 22.1212C412.697 22.1212 413.402 22.1013 414.078 22.052C414.441 21.5053 414.814 20.9181 415.168 20.3116C415.521 19.705 415.853 19.0885 416.146 18.4919C415.853 17.9054 415.52 17.2988 415.168 16.6916C414.815 16.0845 414.442 15.5072 414.069 14.9612C413.394 14.9113 412.697 14.8814 411.992 14.8814C411.286 14.8814 410.59 14.9107 409.914 14.9605ZM406.588 21.6132C407.28 21.7592 407.98 21.8689 408.685 21.9417C408.443 21.5639 408.201 21.1856 407.969 20.7878C407.747 20.4001 407.525 20.0124 407.324 19.6246C407.032 20.3004 406.79 20.968 406.588 21.6132ZM416.014 20.7779C415.782 21.1756 415.55 21.5533 415.319 21.9218C416.034 21.8389 416.745 21.7194 417.446 21.5639C417.227 20.8926 416.971 20.2321 416.68 19.5847C416.468 19.9824 416.246 20.3802 416.014 20.7779ZM404.864 15.9049C402.807 16.6212 401.568 17.6641 401.568 18.4807C401.607 18.7434 401.702 18.9964 401.847 19.2251C401.992 19.4538 402.185 19.6538 402.414 19.8135C403.201 20.425 404.103 20.897 405.076 21.2055C405.257 21.2678 405.449 21.3152 405.64 21.3751C405.95 20.3969 406.324 19.437 406.759 18.5007C406.323 17.5804 405.952 16.6346 405.65 15.6693C405.378 15.7366 405.116 15.8152 404.864 15.9049ZM417.234 18.4807C417.682 19.4051 418.065 20.355 418.381 21.3246C418.512 21.2847 418.643 21.2448 418.764 21.2049C421.012 20.4693 422.406 19.3453 422.414 18.4701C422.414 17.6548 421.123 16.6 419.016 15.8844C418.804 15.8152 418.573 15.7454 418.342 15.6755C418.036 16.6311 417.666 17.568 417.234 18.4807ZM416.005 16.1936C416.237 16.5913 416.459 16.9796 416.66 17.3674C416.94 16.7337 417.182 16.0863 417.385 15.4281C416.701 15.2743 416.007 15.1548 415.308 15.0702C415.551 15.4374 415.782 15.8058 416.004 16.1936H416.005ZM406.598 15.42C406.8 16.0564 407.042 16.7029 407.324 17.3686C407.526 16.9809 407.747 16.5931 407.969 16.2054C408.191 15.8177 408.422 15.4399 408.665 15.0715C407.939 15.1594 407.254 15.2784 406.598 15.42ZM413.201 11.1935C413.03 11.3425 412.859 11.5014 412.687 11.661C413.387 12.4087 414.03 13.2002 414.612 14.0298C415.638 14.1214 416.656 14.2809 417.657 14.5073C417.698 14.3583 417.725 14.2087 417.758 14.0598C418.23 11.7726 417.94 10.0222 417.173 9.58517C417.005 9.49792 416.815 9.45481 416.622 9.46049C415.798 9.45675 414.534 10.0496 413.201 11.1916V11.1935ZM406.749 9.6101C406.033 10.0178 405.751 11.6485 406.174 13.7967C406.225 14.0255 406.276 14.2536 406.336 14.4924C407.338 14.2743 408.355 14.1181 409.38 14.0248C409.965 13.1942 410.611 12.4026 411.316 11.656C411.205 11.5463 411.084 11.4472 410.973 11.3474C409.57 10.1213 408.221 9.47421 407.341 9.47421C407.134 9.46768 406.929 9.51475 406.749 9.6101ZM413.342 13.9457C412.927 13.3897 412.478 12.8553 411.999 12.3448C411.545 12.8317 411.092 13.3691 410.65 13.9457C411.094 13.9257 411.537 13.9158 411.991 13.9158C412.445 13.9158 412.899 13.9239 413.343 13.9457H413.342ZM409.975 18.5206C409.966 18.265 410.011 18.0102 410.108 17.7708C410.206 17.5314 410.353 17.3121 410.542 17.1255C410.731 16.9388 410.959 16.7885 411.211 16.6831C411.463 16.5778 411.735 16.5195 412.012 16.5115C412.57 16.5291 413.097 16.7504 413.479 17.127C413.861 17.5037 414.065 18.0048 414.048 18.5206C414.066 19.0368 413.861 19.5386 413.48 19.9156C413.098 20.2927 412.569 20.5142 412.011 20.5316C411.734 20.5237 411.462 20.4653 411.21 20.3598C410.957 20.2543 410.73 20.1038 410.541 19.917C410.352 19.7301 410.205 19.5106 410.107 19.2709C410.01 19.0313 409.965 18.7763 409.975 18.5206Z" fill="#2AC7E3"/>
<path d="M432.123 23V14.2727H435.566C436.225 14.2727 436.788 14.3906 437.253 14.6264C437.722 14.8594 438.079 15.1903 438.323 15.6193C438.57 16.0455 438.694 16.5469 438.694 17.1236C438.694 17.7031 438.569 18.2017 438.319 18.6193C438.069 19.0341 437.707 19.3523 437.232 19.5739C436.761 19.7955 436.19 19.9062 435.519 19.9062H433.214V18.4233H435.221C435.573 18.4233 435.866 18.375 436.099 18.2784C436.332 18.1818 436.505 18.0369 436.619 17.8438C436.735 17.6506 436.793 17.4105 436.793 17.1236C436.793 16.8338 436.735 16.5895 436.619 16.3906C436.505 16.1918 436.33 16.0412 436.094 15.9389C435.861 15.8338 435.567 15.7812 435.212 15.7812H433.968V23H432.123ZM436.836 19.0284L439.005 23H436.968L434.846 19.0284H436.836ZM439.998 23V14.2727H445.878V15.794H441.843V17.8736H445.576V19.3949H441.843V21.4787H445.896V23H439.998ZM448.85 23H446.872L449.885 14.2727H452.263L455.272 23H453.294L451.108 16.267H451.04L448.85 23ZM448.726 19.5696H453.397V21.0099H448.726V19.5696ZM463.612 17.3281H461.746C461.712 17.0866 461.642 16.8722 461.537 16.6847C461.432 16.4943 461.297 16.3324 461.132 16.1989C460.967 16.0653 460.777 15.9631 460.561 15.892C460.348 15.821 460.116 15.7855 459.866 15.7855C459.415 15.7855 459.021 15.8977 458.686 16.1222C458.351 16.3437 458.091 16.6676 457.906 17.0938C457.722 17.517 457.629 18.0312 457.629 18.6364C457.629 19.2585 457.722 19.7812 457.906 20.2045C458.094 20.6278 458.355 20.9474 458.69 21.1634C459.025 21.3793 459.413 21.4872 459.854 21.4872C460.101 21.4872 460.329 21.4545 460.54 21.3892C460.753 21.3239 460.942 21.2287 461.106 21.1037C461.271 20.9759 461.408 20.821 461.516 20.6392C461.626 20.4574 461.703 20.25 461.746 20.017L463.612 20.0256C463.564 20.4261 463.443 20.8125 463.25 21.1847C463.06 21.554 462.802 21.8849 462.479 22.1776C462.158 22.4673 461.774 22.6974 461.328 22.8679C460.885 23.0355 460.383 23.1193 459.824 23.1193C459.045 23.1193 458.349 22.9432 457.736 22.5909C457.125 22.2386 456.642 21.7287 456.287 21.0611C455.935 20.3935 455.758 19.5852 455.758 18.6364C455.758 17.6847 455.937 16.875 456.295 16.2074C456.653 15.5398 457.139 15.0312 457.753 14.6818C458.366 14.3295 459.057 14.1534 459.824 14.1534C460.329 14.1534 460.798 14.2244 461.23 14.3665C461.665 14.5085 462.05 14.7159 462.385 14.9886C462.72 15.2585 462.993 15.5895 463.203 15.9815C463.416 16.3736 463.552 16.8224 463.612 17.3281ZM464.603 15.794V14.2727H471.771V15.794H469.099V23H467.275V15.794H464.603Z" fill="#E1E1E6"/>
<rect x="504.864" y="0.5" width="105.8" height="36" rx="18" fill="black"/>
<rect x="504.864" y="0.5" width="105.8" height="36" rx="18" stroke="url(#paint4_linear_2867_20913)"/>
<path d="M528.462 8.71328C528.708 8.57343 528.984 8.5 529.265 8.5C529.546 8.5 529.822 8.57343 530.068 8.71328C532.512 10.1216 534.957 11.5297 537.401 12.9375C537.631 13.0711 537.823 13.2638 537.957 13.4966C538.09 13.7293 538.162 13.9938 538.164 14.2636V22.7398C538.159 23.0195 538.081 23.2928 537.936 23.5308C537.792 23.7688 537.588 23.9627 537.345 24.0923C534.908 25.493 532.472 26.8944 530.037 28.2964C529.787 28.4374 529.505 28.5075 529.219 28.4994C528.934 28.4913 528.655 28.4053 528.414 28.2504C527.683 27.8185 526.952 27.3876 526.221 26.9578C526.06 26.8836 525.916 26.7767 525.798 26.6436C525.891 26.5177 526.058 26.4994 526.193 26.4434C526.493 26.3339 526.783 26.196 527.058 26.0316C527.092 26.0107 527.132 26.0009 527.172 26.0034C527.212 26.0059 527.251 26.0205 527.283 26.0454C527.908 26.4106 528.527 26.7865 529.153 27.1479C529.287 27.2266 529.422 27.1221 529.537 27.0573C531.928 25.6792 534.319 24.3028 536.712 22.9281C536.754 22.9064 536.79 22.872 536.813 22.8296C536.836 22.7871 536.846 22.7385 536.842 22.6901C536.842 19.8949 536.842 17.0993 536.842 14.3032C536.846 14.2488 536.834 14.1944 536.806 14.1476C536.779 14.1007 536.738 14.0638 536.689 14.0419C534.26 12.6475 531.833 11.2524 529.406 9.85671C529.364 9.82733 529.314 9.81162 529.263 9.81162C529.212 9.81162 529.163 9.82733 529.121 9.85671C526.692 11.252 524.265 12.6477 521.839 14.0438C521.79 14.0651 521.748 14.1017 521.721 14.1484C521.693 14.1951 521.681 14.2495 521.685 14.3039C521.685 17.0991 521.685 19.8947 521.685 22.6907C521.681 22.739 521.691 22.7875 521.715 22.8296C521.738 22.8717 521.774 22.9054 521.817 22.9262C522.465 23.3006 523.113 23.674 523.762 24.0463C523.941 24.1597 524.143 24.233 524.352 24.2617C524.562 24.2903 524.775 24.2736 524.977 24.2126C525.153 24.145 525.304 24.0245 525.411 23.8669C525.518 23.7094 525.575 23.5225 525.574 23.3311C525.578 20.5518 525.574 17.7726 525.574 14.994C525.574 14.9645 525.579 14.9352 525.59 14.908C525.601 14.8808 525.618 14.8563 525.639 14.8361C525.66 14.8159 525.685 14.8006 525.713 14.791C525.74 14.7814 525.769 14.7778 525.798 14.7805C526.107 14.7805 526.421 14.7761 526.732 14.7805C526.762 14.7819 526.792 14.7898 526.819 14.8036C526.846 14.8173 526.869 14.8367 526.889 14.8604C526.908 14.8842 526.922 14.9117 526.93 14.9413C526.938 14.971 526.94 15.002 526.935 15.0324C526.935 17.8292 526.938 20.6261 526.935 23.4223C526.956 23.8023 526.876 24.1809 526.705 24.5188C526.533 24.8566 526.276 25.1414 525.96 25.3434C525.537 25.5442 525.074 25.642 524.608 25.629C524.142 25.616 523.686 25.4926 523.274 25.2685C522.562 24.9058 521.882 24.4783 521.182 24.0898C520.94 23.9606 520.735 23.767 520.591 23.5294C520.447 23.2918 520.369 23.0191 520.364 22.7398V14.2636C520.366 13.9881 520.441 13.7183 520.58 13.4821C520.719 13.2459 520.917 13.052 521.155 12.9205C523.592 11.519 526.027 10.1165 528.462 8.71328Z" fill="#8CC84B"/>
<path d="M530.588 14.5832C531.664 14.4411 532.758 14.6118 533.743 15.0756C534.101 15.2928 534.396 15.6014 534.6 15.9709C534.804 16.3403 534.91 16.7577 534.907 17.1818C534.894 17.2348 534.861 17.281 534.817 17.3117C534.772 17.3425 534.718 17.3558 534.665 17.3493C534.356 17.3493 534.047 17.3537 533.739 17.3493C533.679 17.3454 533.624 17.3191 533.582 17.2755C533.541 17.232 533.517 17.1743 533.516 17.1138C533.481 16.9084 533.402 16.7133 533.286 16.5419C533.17 16.3706 533.018 16.2271 532.842 16.1214C532.256 15.884 531.623 15.7917 530.995 15.852C530.532 15.8372 530.074 15.9533 529.672 16.1876C529.533 16.297 529.432 16.448 529.382 16.6192C529.332 16.7904 529.336 16.9733 529.393 17.1421C529.492 17.382 529.764 17.457 529.986 17.5306C531.267 17.8719 532.623 17.8379 533.879 18.2862C534.149 18.3626 534.398 18.5009 534.607 18.6906C534.816 18.8803 534.98 19.1163 535.086 19.3806C535.212 19.7555 535.242 20.1569 535.174 20.5472C535.106 20.9374 534.942 21.3036 534.697 21.6114C534.255 22.0802 533.679 22.3963 533.052 22.5156C532.235 22.6849 531.396 22.7212 530.568 22.6233C529.773 22.5771 529.011 22.2847 528.383 21.7852C528.134 21.5525 527.938 21.2664 527.81 20.9476C527.682 20.6288 527.624 20.2851 527.642 19.941C527.647 19.8853 527.674 19.8342 527.717 19.7988C527.759 19.7634 527.814 19.7466 527.868 19.7521C528.177 19.7521 528.489 19.7489 528.799 19.7521C528.828 19.7514 528.857 19.7566 528.884 19.7672C528.91 19.7779 528.935 19.7939 528.955 19.8143C528.976 19.8347 528.993 19.859 529.004 19.886C529.015 19.9129 529.021 19.9419 529.022 19.9712C529.037 20.1667 529.092 20.357 529.182 20.5302C529.272 20.7035 529.396 20.8561 529.547 20.9786C530.211 21.3122 530.954 21.45 531.692 21.3766C532.309 21.4239 532.925 21.2695 533.45 20.9358C533.571 20.8154 533.659 20.665 533.705 20.4993C533.752 20.3337 533.755 20.1586 533.714 19.9913C533.639 19.7118 533.352 19.5814 533.106 19.4964C531.842 19.0884 530.47 19.2364 529.216 18.7755C528.953 18.6971 528.71 18.5617 528.504 18.3784C528.298 18.1951 528.133 17.9684 528.021 17.7139C527.877 17.3339 527.841 16.9204 527.916 16.5204C527.991 16.1204 528.175 15.7501 528.447 15.4515C529.039 14.9188 529.792 14.61 530.581 14.5769L530.588 14.5832Z" fill="#8CC84B"/>
<path d="M554.222 14.2727V23H552.629L548.832 17.5071H548.768V23H546.923V14.2727H548.542L552.309 19.7614H552.386V14.2727H554.222ZM563.767 18.6364C563.767 19.5881 563.586 20.3977 563.225 21.0653C562.868 21.733 562.379 22.2429 561.76 22.5952C561.143 22.9446 560.45 23.1193 559.68 23.1193C558.904 23.1193 558.208 22.9432 557.592 22.5909C556.975 22.2386 556.488 21.7287 556.13 21.0611C555.772 20.3935 555.593 19.5852 555.593 18.6364C555.593 17.6847 555.772 16.875 556.13 16.2074C556.488 15.5398 556.975 15.0312 557.592 14.6818C558.208 14.3295 558.904 14.1534 559.68 14.1534C560.45 14.1534 561.143 14.3295 561.76 14.6818C562.379 15.0312 562.868 15.5398 563.225 16.2074C563.586 16.875 563.767 17.6847 563.767 18.6364ZM561.896 18.6364C561.896 18.0199 561.804 17.5 561.619 17.0767C561.437 16.6534 561.18 16.3324 560.848 16.1136C560.515 15.8949 560.126 15.7855 559.68 15.7855C559.234 15.7855 558.845 15.8949 558.512 16.1136C558.18 16.3324 557.922 16.6534 557.737 17.0767C557.555 17.5 557.464 18.0199 557.464 18.6364C557.464 19.2528 557.555 19.7727 557.737 20.196C557.922 20.6193 558.18 20.9403 558.512 21.1591C558.845 21.3778 559.234 21.4872 559.68 21.4872C560.126 21.4872 560.515 21.3778 560.848 21.1591C561.18 20.9403 561.437 20.6193 561.619 20.196C561.804 19.7727 561.896 19.2528 561.896 18.6364ZM568.227 23H565.134V14.2727H568.253C569.131 14.2727 569.886 14.4474 570.52 14.7969C571.153 15.1435 571.641 15.642 571.982 16.2926C572.325 16.9432 572.497 17.7216 572.497 18.6278C572.497 19.5369 572.325 20.3182 571.982 20.9716C571.641 21.625 571.151 22.1264 570.511 22.4759C569.875 22.8253 569.114 23 568.227 23ZM566.979 21.419H568.151C568.696 21.419 569.155 21.3224 569.527 21.1293C569.902 20.9332 570.183 20.6307 570.371 20.2216C570.561 19.8097 570.656 19.2784 570.656 18.6278C570.656 17.983 570.561 17.456 570.371 17.0469C570.183 16.6378 569.903 16.3366 569.531 16.1435C569.159 15.9503 568.7 15.8537 568.155 15.8537H566.979V21.419ZM573.864 23V14.2727H579.745V15.794H575.709V17.8736H579.442V19.3949H575.709V21.4787H579.762V23H573.864ZM584.706 14.2727H586.53V20.358C586.53 20.9205 586.403 21.4091 586.151 21.8239C585.901 22.2386 585.553 22.5582 585.107 22.7827C584.661 23.0071 584.142 23.1193 583.551 23.1193C583.026 23.1193 582.548 23.027 582.119 22.8423C581.693 22.6548 581.355 22.3707 581.105 21.9901C580.855 21.6065 580.732 21.125 580.734 20.5455H582.571C582.577 20.7756 582.624 20.973 582.712 21.1378C582.803 21.2997 582.926 21.4247 583.082 21.5128C583.241 21.598 583.429 21.6406 583.645 21.6406C583.872 21.6406 584.064 21.5923 584.22 21.4957C584.379 21.3963 584.5 21.2514 584.582 21.0611C584.665 20.8707 584.706 20.6364 584.706 20.358V14.2727ZM592.79 16.7827C592.756 16.4389 592.609 16.1719 592.351 15.9815C592.092 15.7912 591.741 15.696 591.298 15.696C590.997 15.696 590.743 15.7386 590.536 15.8239C590.328 15.9062 590.169 16.0213 590.058 16.169C589.95 16.3168 589.896 16.4844 589.896 16.6719C589.891 16.8281 589.923 16.9645 589.994 17.081C590.068 17.1974 590.169 17.2983 590.297 17.3835C590.425 17.4659 590.572 17.5384 590.74 17.6009C590.908 17.6605 591.087 17.7116 591.277 17.7543L592.061 17.9418C592.442 18.027 592.791 18.1406 593.109 18.2827C593.428 18.4247 593.703 18.5994 593.936 18.8068C594.169 19.0142 594.349 19.2585 594.477 19.5398C594.608 19.821 594.675 20.1435 594.678 20.5071C594.675 21.0412 594.538 21.5043 594.268 21.8963C594.001 22.2855 593.615 22.5881 593.109 22.804C592.607 23.017 592 23.1236 591.29 23.1236C590.585 23.1236 589.972 23.0156 589.449 22.7997C588.929 22.5838 588.523 22.2642 588.23 21.8409C587.94 21.4148 587.788 20.8878 587.774 20.2599H589.56C589.58 20.5526 589.663 20.7969 589.811 20.9929C589.962 21.1861 590.162 21.3324 590.412 21.4318C590.665 21.5284 590.95 21.5767 591.268 21.5767C591.581 21.5767 591.852 21.5312 592.082 21.4403C592.315 21.3494 592.496 21.223 592.624 21.0611C592.751 20.8991 592.815 20.7131 592.815 20.5028C592.815 20.3068 592.757 20.142 592.641 20.0085C592.527 19.875 592.359 19.7614 592.138 19.6676C591.919 19.5739 591.651 19.4886 591.332 19.4119L590.382 19.1733C589.646 18.9943 589.065 18.7145 588.639 18.3338C588.213 17.9531 588.001 17.4403 588.004 16.7955C588.001 16.267 588.142 15.8054 588.426 15.4105C588.713 15.0156 589.107 14.7074 589.607 14.4858C590.107 14.2642 590.675 14.1534 591.311 14.1534C591.959 14.1534 592.524 14.2642 593.007 14.4858C593.493 14.7074 593.871 15.0156 594.141 15.4105C594.411 15.8054 594.55 16.2628 594.558 16.7827H592.79Z" fill="#E1E1E6"/>
<rect x="627.664" y="0.5" width="178.765" height="36" rx="18" fill="black"/>
<rect x="627.664" y="0.5" width="178.765" height="36" rx="18" stroke="#B585FB"/>
<path d="M655.201 26.6058C654.999 26.4269 654.788 26.2474 654.586 26.0485C654.425 26.1975 654.274 26.3371 654.114 26.4761C652.118 28.1966 650.061 28.9129 648.841 28.2166C647.662 27.5502 647.29 25.5816 647.762 23.1049C647.813 22.8365 647.873 22.568 647.944 22.2995C647.732 22.2372 647.53 22.1798 647.328 22.1125C644.817 21.2554 643.164 19.8634 643.164 18.4708C643.164 17.1286 644.707 15.8258 647.116 14.9905C647.386 14.9007 647.67 14.8115 647.963 14.7317C647.896 14.473 647.842 14.2243 647.792 13.9837C647.287 11.4696 647.64 9.46111 648.83 8.78475C650.07 8.0685 652.127 8.83462 654.193 10.6343C654.314 10.7434 654.435 10.8631 654.566 10.9821C654.757 10.8032 654.939 10.6243 655.13 10.4654C657.086 8.78226 659.032 8.07847 660.222 8.75483C661.461 9.45052 661.825 11.5987 661.27 14.2542C661.24 14.4238 661.203 14.5828 661.16 14.7529C661.412 14.8228 661.664 14.9019 661.896 14.9817C664.356 15.817 665.949 17.1199 665.929 18.4919C665.929 19.8939 664.225 21.2766 661.612 22.1318C661.471 22.1717 661.33 22.2216 661.188 22.2609C661.249 22.4597 661.289 22.6586 661.329 22.8574C661.853 25.4332 661.45 27.5415 660.23 28.2378C659.91 28.416 659.542 28.5068 659.168 28.4996C658.05 28.4977 656.631 27.8176 655.201 26.6058ZM657.178 22.9559C656.598 23.7885 655.962 24.5858 655.272 25.3428C655.464 25.5299 655.655 25.7013 655.847 25.8602C657.51 27.2722 659.043 27.7996 659.759 27.3919C659.978 27.2177 660.156 27.0048 660.284 26.7657C660.413 26.5266 660.488 26.2662 660.505 25.9999C660.65 25.013 660.609 24.0102 660.383 23.0364C660.353 22.8574 660.316 22.6785 660.263 22.4897C659.247 22.7094 658.216 22.8652 657.178 22.9559ZM648.729 23.2745C648.316 25.394 648.618 26.9736 649.336 27.3819C649.59 27.4801 649.865 27.5254 650.14 27.5147C650.415 27.5039 650.685 27.4373 650.929 27.3196C651.88 26.9503 652.745 26.4169 653.48 25.748C653.631 25.6283 653.772 25.4893 653.924 25.3503C653.219 24.593 652.565 23.7959 651.968 22.9634C650.933 22.8835 649.906 22.7377 648.893 22.5271C648.83 22.787 648.779 23.0351 648.729 23.2745ZM654.597 24.6665C655.041 24.179 655.484 23.6423 655.928 23.0457C655.484 23.0656 655.02 23.0756 654.556 23.0756C654.092 23.0756 653.659 23.0656 653.226 23.0457C653.679 23.6317 654.133 24.179 654.596 24.6665H654.597ZM652.479 14.9605C652.096 15.5072 651.723 16.0826 651.37 16.691C651.017 17.2876 650.696 17.8941 650.402 18.4988C650.705 19.0954 651.027 19.7019 651.38 20.3191C651.733 20.9156 652.106 21.5035 652.489 22.0589C653.154 22.0988 653.85 22.1212 654.556 22.1212C655.261 22.1212 655.967 22.1013 656.643 22.052C657.006 21.5053 657.379 20.9181 657.732 20.3116C658.085 19.705 658.417 19.0885 658.71 18.4919C658.417 17.9054 658.085 17.2988 657.732 16.6916C657.379 16.0845 657.006 15.5072 656.633 14.9612C655.959 14.9113 655.262 14.8814 654.556 14.8814C653.851 14.8814 653.155 14.9107 652.479 14.9605ZM649.152 21.6132C649.844 21.7592 650.544 21.8689 651.249 21.9417C651.007 21.5639 650.766 21.1856 650.534 20.7878C650.312 20.4001 650.09 20.0124 649.888 19.6246C649.596 20.3004 649.354 20.968 649.152 21.6132ZM658.578 20.7779C658.346 21.1756 658.114 21.5533 657.883 21.9218C658.599 21.8389 659.309 21.7194 660.01 21.5639C659.791 20.8926 659.536 20.2321 659.244 19.5847C659.032 19.9824 658.811 20.3802 658.578 20.7779ZM647.428 15.9049C645.372 16.6212 644.132 17.6641 644.132 18.4807C644.171 18.7434 644.266 18.9964 644.411 19.2251C644.557 19.4538 644.749 19.6538 644.978 19.8135C645.765 20.425 646.668 20.897 647.64 21.2055C647.822 21.2678 648.013 21.3152 648.205 21.3751C648.514 20.3969 648.888 19.437 649.324 18.5007C648.887 17.5804 648.517 16.6346 648.215 15.6693C647.943 15.7366 647.681 15.8152 647.428 15.9049ZM659.799 18.4807C660.246 19.4051 660.629 20.355 660.945 21.3246C661.077 21.2847 661.208 21.2448 661.328 21.2049C663.577 20.4693 664.971 19.3453 664.978 18.4701C664.978 17.6548 663.688 16.6 661.581 15.8844C661.369 15.8152 661.138 15.7454 660.906 15.6755C660.601 16.6311 660.231 17.568 659.799 18.4807ZM658.569 16.1936C658.801 16.5913 659.023 16.9796 659.224 17.3674C659.504 16.7337 659.746 16.0863 659.95 15.4281C659.265 15.2743 658.572 15.1548 657.873 15.0702C658.115 15.4374 658.346 15.8058 658.568 16.1936H658.569ZM649.162 15.42C649.365 16.0564 649.606 16.7029 649.888 17.3686C650.091 16.9809 650.312 16.5931 650.534 16.2054C650.756 15.8177 650.987 15.4399 651.229 15.0715C650.503 15.1594 649.818 15.2784 649.162 15.42ZM655.766 11.1935C655.594 11.3425 655.423 11.5014 655.251 11.661C655.951 12.4087 656.595 13.2002 657.177 14.0298C658.203 14.1214 659.22 14.2809 660.222 14.5073C660.262 14.3583 660.289 14.2087 660.323 14.0598C660.795 11.7726 660.504 10.0222 659.738 9.58517C659.57 9.49792 659.379 9.45481 659.186 9.46049C658.363 9.45675 657.099 10.0496 655.766 11.1916V11.1935ZM649.314 9.6101C648.598 10.0178 648.315 11.6485 648.739 13.7967C648.789 14.0255 648.84 14.2536 648.9 14.4924C649.903 14.2743 650.92 14.1181 651.945 14.0248C652.529 13.1942 653.176 12.4026 653.881 11.656C653.77 11.5463 653.649 11.4472 653.538 11.3474C652.135 10.1213 650.786 9.47421 649.905 9.47421C649.698 9.46768 649.493 9.51475 649.314 9.6101ZM655.907 13.9457C655.491 13.3897 655.042 12.8553 654.563 12.3448C654.11 12.8317 653.656 13.3691 653.214 13.9457C653.658 13.9257 654.101 13.9158 654.555 13.9158C655.009 13.9158 655.464 13.9239 655.907 13.9457H655.907ZM652.54 18.5206C652.53 18.265 652.575 18.0102 652.673 17.7708C652.77 17.5314 652.917 17.3121 653.107 17.1255C653.296 16.9388 653.523 16.7885 653.775 16.6831C654.027 16.5778 654.299 16.5195 654.576 16.5115C655.134 16.5291 655.662 16.7504 656.043 17.127C656.425 17.5037 656.63 18.0048 656.612 18.5206C656.63 19.0368 656.426 19.5386 656.044 19.9156C655.662 20.2927 655.134 20.5142 654.575 20.5316C654.299 20.5237 654.026 20.4653 653.774 20.3598C653.522 20.2543 653.295 20.1038 653.105 19.917C652.916 19.7301 652.769 19.5106 652.672 19.2709C652.575 19.0313 652.53 18.7763 652.54 18.5206Z" fill="#667DFF"/>
<path d="M674.687 23V14.2727H678.13C678.79 14.2727 679.352 14.3906 679.818 14.6264C680.287 14.8594 680.643 15.1903 680.888 15.6193C681.135 16.0455 681.258 16.5469 681.258 17.1236C681.258 17.7031 681.133 18.2017 680.883 18.6193C680.633 19.0341 680.271 19.3523 679.797 19.5739C679.325 19.7955 678.754 19.9062 678.084 19.9062H675.778V18.4233H677.785C678.138 18.4233 678.43 18.375 678.663 18.2784C678.896 18.1818 679.069 18.0369 679.183 17.8438C679.299 17.6506 679.358 17.4105 679.358 17.1236C679.358 16.8338 679.299 16.5895 679.183 16.3906C679.069 16.1918 678.895 16.0412 678.659 15.9389C678.426 15.8338 678.132 15.7812 677.777 15.7812H676.532V23H674.687ZM679.4 19.0284L681.569 23H679.532L677.41 19.0284H679.4ZM682.562 23V14.2727H688.443V15.794H684.407V17.8736H688.14V19.3949H684.407V21.4787H688.46V23H682.562ZM691.414 23H689.437L692.45 14.2727H694.828L697.836 23H695.859L693.673 16.267H693.604L691.414 23ZM691.291 19.5696H695.961V21.0099H691.291V19.5696ZM706.177 17.3281H704.31C704.276 17.0866 704.206 16.8722 704.101 16.6847C703.996 16.4943 703.861 16.3324 703.696 16.1989C703.532 16.0653 703.341 15.9631 703.125 15.892C702.912 15.821 702.681 15.7855 702.431 15.7855C701.979 15.7855 701.586 15.8977 701.25 16.1222C700.915 16.3437 700.655 16.6676 700.471 17.0938C700.286 17.517 700.194 18.0312 700.194 18.6364C700.194 19.2585 700.286 19.7812 700.471 20.2045C700.658 20.6278 700.919 20.9474 701.255 21.1634C701.59 21.3793 701.978 21.4872 702.418 21.4872C702.665 21.4872 702.894 21.4545 703.104 21.3892C703.317 21.3239 703.506 21.2287 703.671 21.1037C703.836 20.9759 703.972 20.821 704.08 20.6392C704.191 20.4574 704.267 20.25 704.31 20.017L706.177 20.0256C706.128 20.4261 706.008 20.8125 705.814 21.1847C705.624 21.554 705.367 21.8849 705.043 22.1776C704.722 22.4673 704.339 22.6974 703.892 22.8679C703.449 23.0355 702.948 23.1193 702.388 23.1193C701.61 23.1193 700.914 22.9432 700.3 22.5909C699.689 22.2386 699.206 21.7287 698.851 21.0611C698.499 20.3935 698.323 19.5852 698.323 18.6364C698.323 17.6847 698.502 16.875 698.86 16.2074C699.218 15.5398 699.704 15.0312 700.317 14.6818C700.931 14.3295 701.621 14.1534 702.388 14.1534C702.894 14.1534 703.363 14.2244 703.794 14.3665C704.229 14.5085 704.614 14.7159 704.949 14.9886C705.285 15.2585 705.557 15.5895 705.767 15.9815C705.981 16.3736 706.117 16.8224 706.177 17.3281ZM707.167 15.794V14.2727H714.335V15.794H711.663V23H709.839V15.794H707.167ZM725.592 14.2727V23H723.999L720.202 17.5071H720.138V23H718.293V14.2727H719.912L723.679 19.7614H723.756V14.2727H725.592ZM728.621 23H726.644L729.657 14.2727H732.035L735.043 23H733.066L730.88 16.267H730.812L728.621 23ZM728.498 19.5696H733.168V21.0099H728.498V19.5696ZM734.695 15.794V14.2727H741.862V15.794H739.19V23H737.367V15.794H734.695ZM744.888 14.2727V23H743.043V14.2727H744.888ZM747.983 14.2727L750.092 20.9034H750.173L752.287 14.2727H754.332L751.324 23H748.946L745.933 14.2727H747.983ZM755.383 23V14.2727H761.263V15.794H757.228V17.8736H760.961V19.3949H757.228V21.4787H761.28V23H755.383Z" fill="#E1E1E6"/>
<path d="M777.929 24.5L783.929 18.5L777.929 12.5" stroke="#E1E1E6" stroke-width="2" stroke-linecap="round" stroke-linejoin="round"/>
<rect x="0.5" y="53.5" width="78.5344" height="36" rx="18" fill="black"/>
<rect x="0.5" y="53.5" width="78.5344" height="36" rx="18" stroke="url(#paint5_linear_2867_20913)"/>
<path fill-rule="evenodd" clip-rule="evenodd" d="M36.0467 62.8338V62.7257C35.287 62.6042 34.9392 62.2564 34.8176 61.5H34.7096C34.588 62.2564 34.2402 62.6008 33.4838 62.7257V62.8338C34.2402 62.9587 34.5846 63.3031 34.7096 64.0629H34.8176C34.9426 63.3031 35.287 62.9587 36.0467 62.8338ZM42.5344 67.1694V67.2842C40.191 67.497 39.2928 68.3985 39.0801 70.7386H38.9653C38.7525 68.3985 37.8543 67.497 35.5109 67.2842V67.1694C37.8543 66.9567 38.7525 66.0585 38.9686 63.7151H39.0767C39.2928 66.0585 40.191 66.9567 42.5344 67.1694ZM26.5993 64.5458L40.8387 81.4967H37.0264L33.1331 76.8639H26.3359C26.2042 76.8639 26.0995 76.9044 26.0219 76.9854C25.9408 77.0665 25.9003 77.1711 25.9003 77.2961V81.4967H23.0166V65.1739C23.0166 64.6336 23.4522 64.198 23.9925 64.198H25.853C26.1401 64.198 26.4136 64.3263 26.5993 64.5458ZM25.9003 76.6376L27.9972 74.382H31.0463L25.9003 68.2567V76.6376ZM16 64.2014V81.4966V81.5H18.86V64.2014H16Z" fill="#DEE0FC"/>
<path d="M53.1379 67.2727V76H51.2927V67.2727H53.1379ZM56.1602 76H54.183L57.1958 67.2727H59.5736L62.5821 76H60.6048L58.4188 69.267H58.3506L56.1602 76ZM56.0367 72.5696H60.7071V74.0099H56.0367V72.5696Z" fill="#E1E1E6"/>
<rect x="96.0342" y="53.5" width="85.6675" height="36" rx="18" fill="black"/>
<rect x="96.0342" y="53.5" width="85.6675" height="36" rx="18" stroke="url(#paint6_linear_2867_20913)"/>
<path d="M116.273 76.9639C116.273 76.9639 115.506 77.4291 116.805 77.568C118.367 77.7694 119.196 77.7346 120.923 77.4013C121.268 77.6166 121.635 77.7971 122.022 77.936C118.132 79.6095 113.212 77.8388 116.273 76.9639ZM115.776 74.7905C115.776 74.7905 114.947 75.4224 116.239 75.5612C117.931 75.7279 119.265 75.7626 121.559 75.2974C121.78 75.5265 122.056 75.6932 122.353 75.7973C117.669 77.2 112.418 75.9293 115.769 74.7974L115.776 74.7905ZM124.951 78.5957C124.951 78.5957 125.518 79.0609 124.322 79.4289C122.098 80.0955 114.981 80.2969 112.991 79.4289C112.293 79.1303 113.62 78.6929 114.048 78.6304C114.484 78.5332 114.712 78.5332 114.712 78.5332C113.945 77.9985 109.626 79.6372 112.521 80.1025C120.467 81.4079 127.01 79.5331 124.951 78.6026V78.5957ZM116.632 72.5199C116.632 72.5199 113.012 73.3878 115.333 73.6864C116.328 73.8184 118.291 73.7836 120.122 73.6517C121.614 73.5198 123.113 73.249 123.113 73.249C123.113 73.249 122.581 73.4851 122.215 73.7142C118.525 74.6863 111.444 74.2489 113.475 73.249C115.202 72.4157 116.632 72.5129 116.632 72.5129V72.5199ZM123.113 76.1584C126.837 74.2211 125.11 72.3532 123.908 72.5824C123.611 72.6518 123.472 72.7143 123.472 72.7143C123.472 72.7143 123.569 72.5129 123.804 72.4504C126.167 71.6172 128.026 74.9571 123.037 76.2556C123.037 76.2556 123.072 76.2209 123.106 76.1584H123.113ZM116.999 81.4357C120.584 81.6718 126.07 81.3037 126.202 79.5956C126.202 79.5956 125.939 80.2622 123.244 80.7621C120.184 81.3315 116.397 81.2621 114.173 80.8941C114.173 80.8941 114.636 81.2968 116.999 81.4287V81.4357Z" fill="#8CBAEC"/>
<path d="M120.861 61.5C120.861 61.5 122.92 63.604 118.899 66.7773C115.672 69.3464 118.166 70.8185 118.899 72.492C117.005 70.7907 115.644 69.284 116.57 67.8813C117.931 65.8121 121.69 64.8122 120.854 61.5H120.861ZM119.804 71.0893C120.771 72.1934 119.541 73.1933 119.541 73.1933C119.541 73.1933 122.001 71.9226 120.868 70.3533C119.838 68.8534 119.037 68.1174 123.362 65.6107C123.362 65.6107 116.549 67.3119 119.804 71.0893Z" fill="#8CBAEC"/>
<path d="M138.454 67.2727H140.278V73.358C140.278 73.9205 140.151 74.4091 139.899 74.8239C139.649 75.2386 139.301 75.5582 138.855 75.7827C138.409 76.0071 137.89 76.1193 137.299 76.1193C136.774 76.1193 136.296 76.027 135.867 75.8423C135.441 75.6548 135.103 75.3707 134.853 74.9901C134.603 74.6065 134.48 74.125 134.482 73.5455H136.319C136.325 73.7756 136.372 73.973 136.46 74.1378C136.551 74.2997 136.674 74.4247 136.83 74.5128C136.99 74.598 137.177 74.6406 137.393 74.6406C137.62 74.6406 137.812 74.5923 137.968 74.4957C138.127 74.3963 138.248 74.2514 138.33 74.0611C138.413 73.8707 138.454 73.6364 138.454 73.358V67.2727ZM143.308 76H141.33L144.343 67.2727H146.721L149.73 76H147.752L145.566 69.267H145.498L143.308 76ZM143.184 72.5696H147.855V74.0099H143.184V72.5696ZM151.267 67.2727L153.376 73.9034H153.457L155.571 67.2727H157.616L154.608 76H152.23L149.217 67.2727H151.267ZM159.011 76H157.034L160.046 67.2727H162.424L165.433 76H163.455L161.269 69.267H161.201L159.011 76ZM158.887 72.5696H163.558V74.0099H158.887V72.5696Z" fill="#E1E1E6"/>
<rect x="198.702" y="53.5" width="112.235" height="36" rx="18" fill="black"/>
<rect x="198.702" y="53.5" width="112.235" height="36" rx="18" stroke="url(#paint7_linear_2867_20913)"/>
<path d="M222.154 61.5001C220.556 61.5001 219.261 62.7795 219.261 64.3595V66.0393H223.601C223.995 66.0393 224.32 66.6103 224.32 67.0003H217.095C215.497 67.0003 214.202 68.2797 214.202 69.8598V73.6411C214.202 75.2211 215.497 76.5006 217.095 76.5006H218.289V73.8208C218.289 72.2407 219.576 70.9613 221.174 70.9613H226.486C228.085 70.9613 229.379 69.6897 229.379 68.1096V64.3595C229.379 62.7794 228.085 61.5 226.486 61.5L222.154 61.5001ZM221.427 63.1095C221.832 63.1095 222.154 63.2305 222.154 63.8205C222.154 64.4105 221.832 64.7111 221.427 64.7111C221.032 64.7111 220.708 64.4105 220.708 63.8205C220.708 63.2305 221.032 63.1095 221.427 63.1095Z" fill="#E6C430"/>
<path d="M230.349 66.4993V69.1791C230.349 70.7592 229.064 72.0386 227.466 72.0386H222.154C220.555 72.0386 219.261 73.3082 219.261 74.8883V78.6384C219.261 79.0141 219.335 79.3861 219.481 79.7332C219.626 80.0803 219.839 80.3957 220.108 80.6614C220.376 80.9271 220.695 81.1379 221.046 81.2818C221.397 81.4256 221.774 81.4997 222.154 81.4998H226.486C226.866 81.4997 227.242 81.4256 227.593 81.2818C227.944 81.1379 228.263 80.9271 228.532 80.6614C228.801 80.3957 229.014 80.0803 229.159 79.7332C229.304 79.3861 229.379 79.0141 229.379 78.6384V76.9586H225.037C224.642 76.9586 224.32 76.3897 224.32 75.9996H231.545C231.925 75.9996 232.301 75.9255 232.652 75.7816C233.003 75.6378 233.322 75.427 233.591 75.1613C233.86 74.8956 234.073 74.5801 234.218 74.233C234.363 73.8859 234.438 73.5139 234.438 73.1383V69.3588C234.438 68.6005 234.133 67.8733 233.59 67.337C233.048 66.8008 232.312 66.4995 231.545 66.4993L230.349 66.4993ZM220.597 71.0132L220.593 71.0171C220.605 71.0147 220.618 71.0155 220.63 71.0132H220.597ZM227.213 78.2888C227.607 78.2888 227.932 78.5894 227.932 79.1794C227.932 79.3677 227.856 79.5482 227.721 79.6812C227.586 79.8141 227.403 79.8887 227.213 79.8884C226.808 79.8884 226.486 79.7695 226.486 79.1794C226.486 78.5894 226.808 78.2888 227.213 78.2888Z" fill="#E6C430"/>
<path d="M243.196 76V67.2727H246.639C247.301 67.2727 247.865 67.3991 248.331 67.652C248.797 67.902 249.152 68.25 249.396 68.696C249.643 69.1392 249.767 69.6506 249.767 70.2301C249.767 70.8097 249.642 71.321 249.392 71.7642C249.142 72.2074 248.78 72.5526 248.305 72.7997C247.834 73.0469 247.263 73.1705 246.592 73.1705H244.398V71.6918H246.294C246.649 71.6918 246.942 71.6307 247.172 71.5085C247.405 71.3835 247.578 71.2116 247.692 70.9929C247.808 70.7713 247.866 70.517 247.866 70.2301C247.866 69.9403 247.808 69.6875 247.692 69.4716C247.578 69.2528 247.405 69.0838 247.172 68.9645C246.939 68.8423 246.643 68.7812 246.286 68.7812H245.041V76H243.196ZM250.454 67.2727H252.521L254.511 71.0312H254.596L256.586 67.2727H258.653L255.47 72.9148V76H253.637V72.9148L250.454 67.2727ZM259.879 68.794V67.2727H267.047V68.794H264.375V76H262.551V68.794H259.879ZM268.227 76V67.2727H270.072V70.8736H273.818V67.2727H275.659V76H273.818V72.3949H270.072V76H268.227ZM285.2 71.6364C285.2 72.5881 285.02 73.3977 284.659 74.0653C284.301 74.733 283.813 75.2429 283.193 75.5952C282.577 75.9446 281.884 76.1193 281.114 76.1193C280.338 76.1193 279.642 75.9432 279.026 75.5909C278.409 75.2386 277.922 74.7287 277.564 74.0611C277.206 73.3935 277.027 72.5852 277.027 71.6364C277.027 70.6847 277.206 69.875 277.564 69.2074C277.922 68.5398 278.409 68.0312 279.026 67.6818C279.642 67.3295 280.338 67.1534 281.114 67.1534C281.884 67.1534 282.577 67.3295 283.193 67.6818C283.813 68.0312 284.301 68.5398 284.659 69.2074C285.02 69.875 285.2 70.6847 285.2 71.6364ZM283.33 71.6364C283.33 71.0199 283.237 70.5 283.053 70.0767C282.871 69.6534 282.614 69.3324 282.281 69.1136C281.949 68.8949 281.56 68.7855 281.114 68.7855C280.668 68.7855 280.278 68.8949 279.946 69.1136C279.614 69.3324 279.355 69.6534 279.17 70.0767C278.989 70.5 278.898 71.0199 278.898 71.6364C278.898 72.2528 278.989 72.7727 279.17 73.196C279.355 73.6193 279.614 73.9403 279.946 74.1591C280.278 74.3778 280.668 74.4872 281.114 74.4872C281.56 74.4872 281.949 74.3778 282.281 74.1591C282.614 73.9403 282.871 73.6193 283.053 73.196C283.237 72.7727 283.33 72.2528 283.33 71.6364ZM293.867 67.2727V76H292.273L288.476 70.5071H288.412V76H286.567V67.2727H288.186L291.953 72.7614H292.03V67.2727H293.867Z" fill="#E1E1E6"/>
<rect x="327.938" y="53.5" width="75.1964" height="37" rx="18.5" fill="black"/>
<rect x="327.938" y="53.5" width="75.1964" height="37" rx="18.5" stroke="url(#paint8_linear_2867_20913)"/>
<path d="M362.556 66.5667L362.61 66.5311C362.503 66.3355 362.343 66.1576 362.183 66.0687L353.593 61.1245C353.45 61.0356 353.255 61 353.041 61C352.828 61 352.632 61.0534 352.49 61.1245L343.953 66.0865C343.651 66.2643 343.438 66.709 343.438 67.0469V76.9531C343.438 77.1487 343.473 77.3622 343.598 77.5578L343.562 77.5756C343.651 77.7179 343.775 77.8424 343.9 77.9135L352.472 82.8755C352.615 82.9644 352.81 83 353.024 83C353.237 83 353.433 82.9466 353.575 82.8755L362.112 77.9135C362.414 77.7357 362.627 77.291 362.627 76.9531V67.0291C362.645 66.8868 362.627 66.7268 362.556 66.5667ZM353.041 79.0162C349.164 79.0162 346.016 75.8682 346.016 71.9911C346.016 68.114 349.164 64.966 353.041 64.966C355.656 64.966 357.932 66.4066 359.142 68.523L356.83 69.8569C356.083 68.523 354.66 67.6338 353.041 67.6338C350.64 67.6338 348.684 69.5901 348.684 71.9911C348.684 74.3921 350.64 76.3484 353.041 76.3484C354.66 76.3484 356.083 75.4592 356.83 74.1431L359.124 75.4947C357.914 77.5934 355.638 79.0162 353.041 79.0162ZM362.112 71.6354H361.543L361.383 72.3468H362.112V73.2361H361.222L361.009 74.3032H360.138L360.351 73.2361H359.675L359.462 74.3032H358.608L358.821 73.2361H358.377V72.3468H358.999L359.159 71.6354H358.377V70.7462H359.319L359.533 69.6791H360.404L360.191 70.7462H360.867L361.08 69.6791H361.934L361.72 70.7462H362.112V71.6354ZM359.853 72.3468H360.529L360.689 71.6354H360.013L359.853 72.3468Z" fill="#9956F6"/>
<path d="M379.093 70.8281H377.226C377.192 70.5866 377.122 70.3722 377.017 70.1847C376.912 69.9943 376.777 69.8324 376.612 69.6989C376.448 69.5653 376.257 69.4631 376.041 69.392C375.828 69.321 375.597 69.2855 375.347 69.2855C374.895 69.2855 374.502 69.3977 374.166 69.6222C373.831 69.8437 373.571 70.1676 373.387 70.5938C373.202 71.017 373.11 71.5312 373.11 72.1364C373.11 72.7585 373.202 73.2812 373.387 73.7045C373.574 74.1278 373.835 74.4474 374.171 74.6634C374.506 74.8793 374.894 74.9872 375.334 74.9872C375.581 74.9872 375.81 74.9545 376.02 74.8892C376.233 74.8239 376.422 74.7287 376.587 74.6037C376.752 74.4759 376.888 74.321 376.996 74.1392C377.107 73.9574 377.184 73.75 377.226 73.517L379.093 73.5256C379.044 73.9261 378.924 74.3125 378.73 74.6847C378.54 75.054 378.283 75.3849 377.959 75.6776C377.638 75.9673 377.255 76.1974 376.809 76.3679C376.365 76.5355 375.864 76.6193 375.304 76.6193C374.526 76.6193 373.83 76.4432 373.216 76.0909C372.605 75.7386 372.122 75.2287 371.767 74.5611C371.415 73.8935 371.239 73.0852 371.239 72.1364C371.239 71.1847 371.418 70.375 371.776 69.7074C372.134 69.0398 372.62 68.5312 373.233 68.1818C373.847 67.8295 374.537 67.6534 375.304 67.6534C375.81 67.6534 376.279 67.7244 376.71 67.8665C377.145 68.0085 377.53 68.2159 377.865 68.4886C378.201 68.7585 378.473 69.0895 378.684 69.4815C378.897 69.8736 379.033 70.3224 379.093 70.8281ZM383.688 76.5L385.12 67.7727H386.484L385.052 76.5H383.688ZM379.781 74.3352L380.007 72.9716H386.825L386.599 74.3352H379.781ZM380.62 76.5L382.052 67.7727H383.416L381.984 76.5H380.62ZM380.279 71.3011L380.509 69.9375H387.328L387.098 71.3011H380.279Z" fill="#E1E1E6"/>
<rect x="420.134" y="53.5" width="111" height="36" rx="18" fill="black"/>
<rect x="420.134" y="53.5" width="111" height="36" rx="18" stroke="url(#paint9_linear_2867_20913)"/>
<path d="M457.634 71.5C457.634 69.7838 457.002 68.1378 455.876 66.9243C454.751 65.7107 453.225 65.029 451.634 65.029C449.034 65.029 446.884 67.2399 445.684 71.1764C444.784 74.1423 443.284 75.814 441.634 75.814C440.573 75.814 439.556 75.3595 438.805 74.5504C438.055 73.7414 437.634 72.6441 437.634 71.5C437.634 70.3558 438.055 69.2586 438.805 68.4495C439.556 67.6405 440.573 67.186 441.634 67.186H442.234L441.434 68.0488C441.325 68.1525 441.24 68.2818 441.185 68.4266C441.13 68.5714 441.106 68.7279 441.116 68.8841C441.125 69.0403 441.168 69.1921 441.24 69.3277C441.313 69.4633 441.413 69.5792 441.534 69.6665C441.734 69.8232 441.98 69.8983 442.227 69.8786C442.474 69.8588 442.707 69.7455 442.884 69.5587L445.334 66.8624C445.431 66.7665 445.508 66.6498 445.561 66.5198C445.614 66.3899 445.642 66.2494 445.642 66.1075C445.642 65.9655 445.614 65.8251 445.561 65.6951C445.508 65.5652 445.431 65.4485 445.334 65.3525L442.884 62.6563C442.707 62.4694 442.474 62.3561 442.227 62.3364C441.98 62.3167 441.734 62.3918 441.534 62.5484C441.413 62.6357 441.313 62.7516 441.24 62.8873C441.168 63.0229 441.125 63.1746 441.116 63.3308C441.106 63.487 441.13 63.6436 441.185 63.7884C441.24 63.9332 441.325 64.0624 441.434 64.1662L442.234 65.029H441.634C440.042 65.029 438.516 65.7107 437.391 66.9243C436.266 68.1378 435.634 69.7838 435.634 71.5C435.634 73.2162 436.266 74.8621 437.391 76.0757C438.516 77.2892 440.042 77.971 441.634 77.971C444.234 77.971 446.384 75.7601 447.584 71.8235C448.484 68.8577 449.984 67.186 451.634 67.186C452.695 67.186 453.712 67.6405 454.462 68.4495C455.212 69.2586 455.634 70.3558 455.634 71.5C455.634 72.6441 455.212 73.7414 454.462 74.5504C453.712 75.3595 452.695 75.814 451.634 75.814H451.034L451.834 74.9512C451.942 74.8474 452.028 74.7182 452.083 74.5734C452.138 74.4285 452.162 74.272 452.152 74.1158C452.142 73.9596 452.1 73.8079 452.027 73.6722C451.955 73.5366 451.854 73.4207 451.734 73.3334C451.533 73.1768 451.288 73.1017 451.041 73.1214C450.793 73.1411 450.561 73.2544 450.384 73.4413L447.934 76.1375C447.837 76.2335 447.759 76.3502 447.706 76.4801C447.653 76.6101 447.626 76.7505 447.626 76.8925C447.626 77.0344 447.653 77.1749 447.706 77.3048C447.759 77.4348 447.837 77.5514 447.934 77.6474L450.384 80.3437C450.561 80.5305 450.793 80.6438 451.041 80.6635C451.288 80.6833 451.533 80.6082 451.734 80.4515C451.854 80.3642 451.955 80.2483 452.027 80.1127C452.1 79.9771 452.142 79.8253 452.152 79.6691C452.162 79.5129 452.138 79.3564 452.083 79.2116C452.028 79.0668 451.942 78.9375 451.834 78.8338L451.034 77.971H451.634C453.225 77.971 454.751 77.2892 455.876 76.0757C457.002 74.8621 457.634 73.2162 457.634 71.5Z" fill="#84CC16"/>
<path d="M469.486 76H466.392V67.2727H469.512C470.389 67.2727 471.145 67.4474 471.779 67.7969C472.412 68.1435 472.899 68.642 473.24 69.2926C473.584 69.9432 473.756 70.7216 473.756 71.6278C473.756 72.5369 473.584 73.3182 473.24 73.9716C472.899 74.625 472.409 75.1264 471.77 75.4759C471.134 75.8253 470.372 76 469.486 76ZM468.237 74.419H469.409C469.955 74.419 470.414 74.3224 470.786 74.1293C471.161 73.9332 471.442 73.6307 471.63 73.2216C471.82 72.8097 471.915 72.2784 471.915 71.6278C471.915 70.983 471.82 70.456 471.63 70.0469C471.442 69.6378 471.162 69.3366 470.79 69.1435C470.418 68.9503 469.959 68.8537 469.414 68.8537H468.237V74.419ZM475.123 76V67.2727H481.003V68.794H476.968V70.8736H480.701V72.3949H476.968V74.4787H481.021V76H475.123ZM484.047 67.2727L486.157 73.9034H486.237L488.351 67.2727H490.397L487.388 76H485.01L481.997 67.2727H484.047ZM498.975 71.6364C498.975 72.5881 498.794 73.3977 498.434 74.0653C498.076 74.733 497.587 75.2429 496.968 75.5952C496.351 75.9446 495.658 76.1193 494.888 76.1193C494.112 76.1193 493.416 75.9432 492.8 75.5909C492.184 75.2386 491.696 74.7287 491.338 74.0611C490.98 73.3935 490.801 72.5852 490.801 71.6364C490.801 70.6847 490.98 69.875 491.338 69.2074C491.696 68.5398 492.184 68.0312 492.8 67.6818C493.416 67.3295 494.112 67.1534 494.888 67.1534C495.658 67.1534 496.351 67.3295 496.968 67.6818C497.587 68.0312 498.076 68.5398 498.434 69.2074C498.794 69.875 498.975 70.6847 498.975 71.6364ZM497.104 71.6364C497.104 71.0199 497.012 70.5 496.827 70.0767C496.645 69.6534 496.388 69.3324 496.056 69.1136C495.723 68.8949 495.334 68.7855 494.888 68.7855C494.442 68.7855 494.053 68.8949 493.72 69.1136C493.388 69.3324 493.13 69.6534 492.945 70.0767C492.763 70.5 492.672 71.0199 492.672 71.6364C492.672 72.2528 492.763 72.7727 492.945 73.196C493.13 73.6193 493.388 73.9403 493.72 74.1591C494.053 74.3778 494.442 74.4872 494.888 74.4872C495.334 74.4872 495.723 74.3778 496.056 74.1591C496.388 73.9403 496.645 73.6193 496.827 73.196C497.012 72.7727 497.104 72.2528 497.104 71.6364ZM500.342 76V67.2727H503.785C504.447 67.2727 505.011 67.3991 505.476 67.652C505.942 67.902 506.297 68.25 506.542 68.696C506.789 69.1392 506.913 69.6506 506.913 70.2301C506.913 70.8097 506.788 71.321 506.538 71.7642C506.288 72.2074 505.925 72.5526 505.451 72.7997C504.979 73.0469 504.408 73.1705 503.738 73.1705H501.543V71.6918H503.44C503.795 71.6918 504.087 71.6307 504.317 71.5085C504.55 71.3835 504.724 71.2116 504.837 70.9929C504.954 70.7713 505.012 70.517 505.012 70.2301C505.012 69.9403 504.954 69.6875 504.837 69.4716C504.724 69.2528 504.55 69.0838 504.317 68.9645C504.084 68.8423 503.789 68.7812 503.431 68.7812H502.187V76H500.342ZM512.845 69.7827C512.811 69.4389 512.665 69.1719 512.407 68.9815C512.148 68.7912 511.797 68.696 511.354 68.696C511.053 68.696 510.799 68.7386 510.591 68.8239C510.384 68.9062 510.225 69.0213 510.114 69.169C510.006 69.3168 509.952 69.4844 509.952 69.6719C509.946 69.8281 509.979 69.9645 510.05 70.081C510.124 70.1974 510.225 70.2983 510.353 70.3835C510.48 70.4659 510.628 70.5384 510.796 70.6009C510.963 70.6605 511.142 70.7116 511.333 70.7543L512.117 70.9418C512.497 71.027 512.847 71.1406 513.165 71.2827C513.483 71.4247 513.759 71.5994 513.992 71.8068C514.225 72.0142 514.405 72.2585 514.533 72.5398C514.664 72.821 514.73 73.1435 514.733 73.5071C514.73 74.0412 514.594 74.5043 514.324 74.8963C514.057 75.2855 513.671 75.5881 513.165 75.804C512.662 76.017 512.056 76.1236 511.345 76.1236C510.641 76.1236 510.027 76.0156 509.505 75.7997C508.985 75.5838 508.578 75.2642 508.286 74.8409C507.996 74.4148 507.844 73.8878 507.83 73.2599H509.615C509.635 73.5526 509.719 73.7969 509.867 73.9929C510.017 74.1861 510.218 74.3324 510.468 74.4318C510.72 74.5284 511.006 74.5767 511.324 74.5767C511.637 74.5767 511.908 74.5312 512.138 74.4403C512.371 74.3494 512.551 74.223 512.679 74.0611C512.807 73.8991 512.871 73.7131 512.871 73.5028C512.871 73.3068 512.813 73.142 512.696 73.0085C512.583 72.875 512.415 72.7614 512.193 72.6676C511.975 72.5739 511.706 72.4886 511.388 72.4119L510.438 72.1733C509.702 71.9943 509.121 71.7145 508.695 71.3338C508.269 70.9531 508.057 70.4403 508.06 69.7955C508.057 69.267 508.198 68.8054 508.482 68.4105C508.769 68.0156 509.162 67.7074 509.662 67.4858C510.162 67.2642 510.73 67.1534 511.367 67.1534C512.014 67.1534 512.58 67.2642 513.063 67.4858C513.549 67.7074 513.926 68.0156 514.196 68.4105C514.466 68.8054 514.605 69.2628 514.614 69.7827H512.845Z" fill="#E1E1E6"/>
<defs>
<linearGradient id="paint0_linear_2867_20913" x1="48.5874" y1="0" x2="48.5874" y2="37" gradientUnits="userSpaceOnUse">
<stop stop-color="#323238"/>
<stop offset="1" stop-color="#323238" stop-opacity="0.3"/>
</linearGradient>
<linearGradient id="paint1_linear_2867_20913" x1="164.087" y1="0" x2="164.087" y2="37" gradientUnits="userSpaceOnUse">
<stop stop-color="#323238"/>
<stop offset="1" stop-color="#323238" stop-opacity="0.3"/>
</linearGradient>
<linearGradient id="paint2_linear_2867_20913" x1="299.8" y1="0" x2="299.8" y2="37" gradientUnits="userSpaceOnUse">
<stop stop-color="#323238"/>
<stop offset="1" stop-color="#323238" stop-opacity="0.3"/>
</linearGradient>
<linearGradient id="paint3_linear_2867_20913" x1="436.482" y1="0" x2="436.482" y2="37" gradientUnits="userSpaceOnUse">
<stop stop-color="#323238"/>
<stop offset="1" stop-color="#323238" stop-opacity="0.3"/>
</linearGradient>
<linearGradient id="paint4_linear_2867_20913" x1="557.764" y1="0" x2="557.764" y2="37" gradientUnits="userSpaceOnUse">
<stop stop-color="#323238"/>
<stop offset="1" stop-color="#323238" stop-opacity="0.3"/>
</linearGradient>
<linearGradient id="paint5_linear_2867_20913" x1="39.7672" y1="53" x2="39.7672" y2="90" gradientUnits="userSpaceOnUse">
<stop stop-color="#323238"/>
<stop offset="1" stop-color="#323238" stop-opacity="0.3"/>
</linearGradient>
<linearGradient id="paint6_linear_2867_20913" x1="138.868" y1="53" x2="138.868" y2="90" gradientUnits="userSpaceOnUse">
<stop stop-color="#323238"/>
<stop offset="1" stop-color="#323238" stop-opacity="0.3"/>
</linearGradient>
<linearGradient id="paint7_linear_2867_20913" x1="254.82" y1="53" x2="254.82" y2="90" gradientUnits="userSpaceOnUse">
<stop stop-color="#323238"/>
<stop offset="1" stop-color="#323238" stop-opacity="0.3"/>
</linearGradient>
<linearGradient id="paint8_linear_2867_20913" x1="365.536" y1="53" x2="365.536" y2="91" gradientUnits="userSpaceOnUse">
<stop stop-color="#323238"/>
<stop offset="1" stop-color="#323238" stop-opacity="0.3"/>
</linearGradient>
<linearGradient id="paint9_linear_2867_20913" x1="475.634" y1="53" x2="475.634" y2="90" gradientUnits="userSpaceOnUse">
<stop stop-color="#323238"/>
<stop offset="1" stop-color="#323238" stop-opacity="0.3"/>
</linearGradient>
<clipPath id="clip0_2867_20913">
<rect width="6.85743" height="7.83707" fill="white" transform="translate(249.919 18.9289)"/>
</clipPath>
</defs>
</svg>
